{
  "accessors": [
    {
      "bufferView": 2,
      "componentType": 5126,
      "count": 832,
      "max": [
        0.1764886975288391,
        0.12093275040388107,
        -0.11146230250597
      ],
      "min": [
        -0.0653766468167305,
        -0.12093275040388107,
        -0.13141518831253052
      ],
      "type": "VEC3"
    },
    {
      "bufferView": 2,
      "byteOffset": 9984,
      "componentType": 5126,
      "count": 832,
      "max": [
        1.0,
        1.0,
        0.9999781847000122
      ],
      "min": [
        -1.0,
        -1.0,
        -0.9999781847000122
      ],
      "type": "VEC3"
    },
    {
      "bufferView": 1,
      "componentType": 5126,
      "count": 832,
      "max": [
        0.7860932946205139,
        0.9997897148132324
      ],
      "min": [
        0.0006394680240191519,
        0.0005913969944231212
      ],
      "type": "VEC2"
    },
    {
      "bufferView": 0,
      "componentType": 5125,
      "count": 4320,
      "type": "SCALAR"
    },
    {
      "bufferView": 2,
      "byteOffset": 19968,
      "componentType": 5126,
      "count": 34055,
      "max": [
        0.1510569155216217,
        0.08910466730594635,
        1.3695077896118164
      ],
      "min": [
        -0.03829187899827957,
        -0.09747737646102905,
        0.1812325119972229
      ],
      "type": "VEC3"
    },
    {
      "bufferView": 2,
      "byteOffset": 428628,
      "componentType": 5126,
      "count": 34055,
      "max": [
        0.9999963641166687,
        0.9999877214431763,
        1.0
      ],
      "min": [
        -0.9998692274093628,
        -0.9999973177909851,
        -1.0
      ],
      "type": "VEC3"
    },
    {
      "bufferView": 1,
      "byteOffset": 6656,
      "componentType": 5126,
      "count": 34055,
      "max": [
        0.787816047668457,
        0.9995983839035034
      ],
      "min": [
        0.0009048579959198833,
        0.0009694690234027803
      ],
      "type": "VEC2"
    },
    {
      "bufferView": 0,
      "byteOffset": 17280,
      "componentType": 5125,
      "count": 199584,
      "type": "SCALAR"
    },
    {
      "bufferView": 2,
      "byteOffset": 837288,
      "componentType": 5126,
      "count": 4958,
      "max": [
        0.07827520370483398,
        0.01707163080573082,
        1.5379530191421509
      ],
      "min": [
        0.03728284686803818,
        -0.02546822279691696,
        1.364514708518982
      ],
      "type": "VEC3"
    },
    {
      "bufferView": 2,
      "byteOffset": 896784,
      "componentType": 5126,
      "count": 4958,
      "max": [
        0.999907910823822,
        0.9999611377716064,
        0.924491822719574
      ],
      "min": [
        -0.9998781681060791,
        -0.9998154640197754,
        -0.9994697570800781
      ],
      "type": "VEC3"
    },
    {
      "bufferView": 1,
      "byteOffset": 279096,
      "componentType": 5126,
      "count": 4958,
      "max": [
        0.7113455533981323,
        0.9997095465660095
      ],
      "min": [
        0.00041911000153049827,
        0.0009655950125306845
      ],
      "type": "VEC2"
    },
    {
      "bufferView": 0,
      "byteOffset": 815616,
      "componentType": 5125,
      "count": 28566,
      "type": "SCALAR"
    },
    {
      "bufferView": 2,
      "byteOffset": 956280,
      "componentType": 5126,
      "count": 2040,
      "max": [
        0.07388029247522354,
        0.013045060448348522,
        1.4288846254348755
      ],
      "min": [
        0.04685546085238457,
        -0.022518552839756012,
        1.3254475593566895
      ],
      "type": "VEC3"
    },
    {
      "bufferView": 2,
      "byteOffset": 980760,
      "componentType": 5126,
      "count": 2040,
      "max": [
        0.9992839694023132,
        0.9996421337127686,
        0.9957458972930908
      ],
      "min": [
        -0.9969666600227356,
        -0.9996249675750732,
        -0.9995827078819275
      ],
      "type": "VEC3"
    },
    {
      "bufferView": 1,
      "byteOffset": 318760,
      "componentType": 5126,
      "count": 2040,
      "max": [
        0.5618016719818115,
        0.9998562932014465
      ],
      "min": [
        0.0007909979904070497,
        0.00014364700473379344
      ],
      "type": "VEC2"
    },
    {
      "bufferView": 0,
      "byteOffset": 929880,
      "componentType": 5125,
      "count": 11340,
      "type": "SCALAR"
    },
    {
      "bufferView": 2,
      "byteOffset": 1005240,
      "componentType": 5126,
      "count": 5713,
      "max": [
        0.7510221600532532,
        0.02873470075428486,
        0.24345175921916962
      ],
      "min": [
        0.3945488929748535,
        -0.029205966740846634,
        -0.11963935196399689
      ],
      "type": "VEC3"
    },
    {
      "bufferView": 2,
      "byteOffset": 1073796,
      "componentType": 5126,
      "count": 5713,
      "max": [
        0.9997043013572693,
        0.9999980926513672,
        0.9970763325691223
      ],
      "min": [
        -0.9987419843673706,
        -0.9999681115150452,
        -0.9992484450340271
      ],
      "type": "VEC3"
    },
    {
      "bufferView": 1,
      "byteOffset": 335080,
      "componentType": 5126,
      "count": 5713,
      "max": [
        0.9405227899551392,
        0.9996047616004944
      ],
      "min": [
        0.0007096820045262575,
        0.00011456000356702134
      ],
      "type": "VEC2"
    },
    {
      "bufferView": 0,
      "byteOffset": 975240,
      "componentType": 5125,
      "count": 31740,
      "type": "SCALAR"
    },
    {
      "bufferView": 2,
      "byteOffset": 1142352,
      "componentType": 5126,
      "count": 38250,
      "max": [
        0.49889785051345825,
        0.44209200143814087,
        0.3756204843521118
      ],
      "min": [
        -0.38527899980545044,
        -0.44208505749702454,
        -0.12420499324798584
      ],
      "type": "VEC3"
    },
    {
      "bufferView": 2,
      "byteOffset": 1601352,
      "componentType": 5126,
      "count": 38250,
      "max": [
        0.9999887943267822,
        0.9999887943267822,
        1.0
      ],
      "min": [
        -0.9999887943267822,
        -0.9999887943267822,
        -1.0
      ],
      "type": "VEC3"
    },
    {
      "bufferView": 1,
      "byteOffset": 380784,
      "componentType": 5126,
      "count": 38250,
      "max": [
        0.9997401833534241,
        0.9991651177406311
      ],
      "min": [
        0.00011405300028854981,
        0.01037377119064331
      ],
      "type": "VEC2"
    },
    {
      "bufferView": 0,
      "byteOffset": 1102200,
      "componentType": 5125,
      "count": 223344,
      "type": "SCALAR"
    }
  ],
  "asset": {
    "extras": {
      "author": "Shannen Art (https://sketchfab.com/shannen_art)",
      "license": "CC-BY-4.0 (http://creativecommons.org/licenses/by/4.0/)",
      "source": "https://sketchfab.com/3d-models/simple-candle-in-candle-holder-d15701825720439c88b6d83b5c32cfdd",
      "title": "Simple candle in candle holder"
    },
    "generator": "Sketchfab-14.73.0",
    "version": "2.0"
  },
  "bufferViews": [
    {
      "buffer": 0,
      "byteLength": 1995576,
      "name": "floatBufferViews",
      "target": 34963
    },
    {
      "buffer": 0,
      "byteLength": 686784,
      "byteOffset": 1995576,
      "byteStride": 8,
      "name": "floatBufferViews",
      "target": 34962
    },
    {
      "buffer": 0,
      "byteLength": 2060352,
      "byteOffset": 2682360,
      "byteStride": 12,
      "name": "floatBufferViews",
      "target": 34962
    }
  ],
  "buffers": [
    {
      "byteLength": 4742712,
      "uri": "scene.bin"
    }
  ],
  "images": [
    {
      "uri": "textures/Bottom_baseColor.png"
    },
    {
      "uri": "textures/Bottom_metallicRoughness.png"
    },
    {
      "uri": "textures/Candle_baseColor.png"
    },
    {
      "uri": "textures/Candle_metallicRoughness.png"
    },
    {
      "uri": "textures/Flame_metallicRoughness.png"
    },
    {
      "uri": "textures/Flame_emissive.png"
    },
    {
      "uri": "textures/Fuse_baseColor.png"
    },
    {
      "uri": "textures/Fuse_metallicRoughness.png"
    },
    {
      "uri": "textures/Handle_1_baseColor.png"
    },
    {
      "uri": "textures/Handle_1_metallicRoughness.png"
    },
    {
      "uri": "textures/Holder-3_baseColor.png"
    },
    {
      "uri": "textures/Holder-3_metallicRoughness.png"
    }
  ],
  "materials": [
    {
      "doubleSided": true,
      "name": "Bottom",
      "pbrMetallicRoughness": {
        "baseColorTexture": {
          "index": 0
        },
        "metallicRoughnessTexture": {
          "index": 1
        }
      }
    },
    {
      "doubleSided": true,
      "name": "Candle",
      "pbrMetallicRoughness": {
        "baseColorTexture": {
          "index": 2
        },
        "metallicRoughnessTexture": {
          "index": 3
        }
      }
    },
    {
      "alphaMode": "BLEND",
      "doubleSided": true,
      "emissiveFactor": [
        0.8014571948998178,
        0.8014571948998178,
        0.8014571948998178
      ],
      "emissiveTexture": {
        "index": 5
      },
      "name": "Flame",
      "pbrMetallicRoughness": {
        "baseColorFactor": [
          1.0,
          1.0,
          1.0,
          0.6688524590163935
        ],
        "metallicRoughnessTexture": {
          "index": 4
        }
      }
    },
    {
      "doubleSided": true,
      "name": "Fuse",
      "pbrMetallicRoughness": {
        "baseColorTexture": {
          "index": 6
        },
        "metallicRoughnessTexture": {
          "index": 7
        }
      }
    },
    {
      "doubleSided": true,
      "name": "Handle_1",
      "pbrMetallicRoughness": {
        "baseColorTexture": {
          "index": 8
        },
        "metallicRoughnessTexture": {
          "index": 9
        }
      }
    },
    {
      "doubleSided": true,
      "name": "Holder-3",
      "pbrMetallicRoughness": {
        "baseColorTexture": {
          "index": 10
        },
        "metallicRoughnessTexture": {
          "index": 11
        }
      }
    }
  ],
  "meshes": [
    {
      "name": "Object_0",
      "primitives": [
        {
          "attributes": {
            "NORMAL": 1,
            "POSITION": 0,
            "TEXCOORD_0": 2
          },
          "indices": 3,
          "material": 0,
          "mode": 4
        }
      ]
    },
    {
      "name": "Object_1",
      "primitives": [
        {
          "attributes": {
            "NORMAL": 5,
            "POSITION": 4,
            "TEXCOORD_0": 6
          },
          "indices": 7,
          "material": 1,
          "mode": 4
        }
      ]
    },
    {
      "name": "Object_2",
      "primitives": [
        {
          "attributes": {
            "NORMAL": 9,
            "POSITION": 8,
            "TEXCOORD_0": 10
          },
          "indices": 11,
          "material": 2,
          "mode": 4
        }
      ]
    },
    {
      "name": "Object_3",
      "primitives": [
        {
          "attributes": {
            "NORMAL": 13,
            "POSITION": 12,
            "TEXCOORD_0": 14
          },
          "indices": 15,
          "material": 3,
          "mode": 4
        }
      ]
    },
    {
      "name": "Object_4",
      "primitives": [
        {
          "attributes": {
            "NORMAL": 17,
            "POSITION": 16,
            "TEXCOORD_0": 18
          },
          "indices": 19,
          "material": 4,
          "mode": 4
        }
      ]
    },
    {
      "name": "Object_5",
      "primitives": [
        {
          "attributes": {
            "NORMAL": 21,
            "POSITION": 20,
            "TEXCOORD_0": 22
          },
          "indices": 23,
          "material": 5,
          "mode": 4
        }
      ]
    }
  ],
  "nodes": [
    {
      "children": [
        1
      ],
      "matrix": [
        1.0,
        0.0,
        0.0,
        0.0,
        0.0,
        2.220446049250313e-16,
        -1.0,
        0.0,
        0.0,
        1.0,
        2.220446049250313e-16,
        0.0,
        0.0,
        0.0,
        0.0,
        1.0
      ],
      "name": "Sketchfab_model"
    },
    {
      "children": [
        2,
        3,
        4,
        5,
        6,
        7
      ],
      "name": "candle.obj.cleaner.materialmerger.gles"
    },
    {
      "mesh": 0,
      "name": "Object_2"
    },
    {
      "mesh": 1,
      "name": "Object_3"
    },
    {
      "mesh": 2,
      "name": "Object_4"
    },
    {
      "mesh": 3,
      "name": "Object_5"
    },
    {
      "mesh": 4,
      "name": "Object_6"
    },
    {
      "mesh": 5,
      "name": "Object_7"
    }
  ],
  "samplers": [
    {
      "magFilter": 9729,
      "minFilter": 9729,
      "wrapS": 10497,
      "wrapT": 10497
    },
    {
      "magFilter": 9729,
      "minFilter": 9987,
      "wrapS": 10497,
      "wrapT": 10497
    }
  ],
  "scene": 0,
  "scenes": [
    {
      "name": "Sketchfab_Scene",
      "nodes": [
        0
      ]
    }
  ],
  "textures": [
    {
      "sampler": 0,
      "source": 0
    },
    {
      "sampler": 0,
      "source": 1
    },
    {
      "sampler": 0,
      "source": 2
    },
    {
      "sampler": 0,
      "source": 3
    },
    {
      "sampler": 0,
      "source": 4
    },
    {
      "sampler": 0,
      "source": 5
    },
    {
      "sampler": 1,
      "source": 6
    },
    {
      "sampler": 1,
      "source": 7
    },
    {
      "sampler": 0,
      "source": 8
    },
    {
      "sampler": 0,
      "source": 9
    },
    {
      "sampler": 0,
      "source": 10
    },
    {
      "sampler": 0,
      "source": 11
    }
  ]
}
